<?xml version="1.0" encoding="UTF-8"?>
<!DOCTYPE svg PUBLIC "-//W3C//DTD SVG 1.1//EN" "http://www.w3.org/Graphics/SVG/1.1/DTD/svg11.dtd">
<!-- Creator: CorelDRAW 2021 (64-Bit) -->
<svg xmlns="http://www.w3.org/2000/svg" xml:space="preserve" width="19346px" height="6632px" version="1.1" style="shape-rendering:geometricPrecision; text-rendering:geometricPrecision; image-rendering:optimizeQuality; fill-rule:evenodd; clip-rule:evenodd"
viewBox="0 0 72618.27 24894.79"
 xmlns:xlink="http://www.w3.org/1999/xlink"
 xmlns:xodm="http://www.corel.com/coreldraw/odm/2003">
 <defs>
  <style type="text/css">
   <![CDATA[
    .fil2 {fill:black}
    .fil1 {fill:#1B99D6}
    .fil0 {fill:black;fill-rule:nonzero}
   ]]>
  </style>
 </defs>
 <g id="Layer_x0020_1">
  <metadata id="CorelCorpID_0Corel-Layer"/>
  <path class="fil0" d="M20503.79 21283.95l-451.01 280.31c-391.34,-516.23 -925.61,-774.34 -1602.82,-774.34 -541.21,0 -990.83,173.46 -1348.86,519 -356.65,345.55 -535.66,764.64 -535.66,1258.67 0,321.95 81.87,624.47 247.01,907.57 163.75,283.09 389.95,503.74 677.21,660.55 285.87,156.81 607.82,234.53 964.47,234.53 652.23,0 1185.11,-258.12 1598.65,-774.35l451.01 296.97c-212.32,317.79 -496.81,563.41 -853.45,739.66 -358.03,174.85 -764.63,262.27 -1221.2,262.27 -702.18,0 -1283.63,-222.03 -1745.75,-664.71 -462.11,-444.07 -692.47,-982.51 -692.47,-1618.09 0,-426.03 108.24,-822.91 324.73,-1189.27 215.09,-366.36 512.06,-652.23 889.53,-857.61 378.85,-205.39 800.71,-308.08 1268.37,-308.08 294.2,0 577.3,44.41 850.68,133.22 271.99,88.82 503.74,205.39 693.86,348.32 191.5,142.94 352.48,324.73 485.7,545.38zm1289.19 -2733.81c129.06,0 238.69,45.79 330.28,138.77 91.59,91.59 137.38,203.99 137.38,333.05 0,127.67 -45.79,238.69 -137.38,330.28 -91.59,92.97 -201.22,138.77 -330.28,138.77 -127.67,0 -235.91,-45.8 -327.5,-138.77 -91.59,-91.59 -137.39,-202.61 -137.39,-330.28 0,-129.06 45.8,-241.46 137.39,-333.05 91.59,-92.98 199.83,-138.77 327.5,-138.77zm-281.7 1815.13l566.18 0 0 4421.28 -566.18 0 0 -4421.28zm3981.37 480.16l-366.36 377.46c-303.91,-294.2 -602.27,-441.3 -892.31,-441.3 -184.56,0 -342.77,61.06 -474.6,183.18 -131.83,120.73 -198.44,263.67 -198.44,426.03 0,142.94 54.12,280.32 162.36,409.38 108.25,133.22 337.22,288.65 684.15,467.66 421.86,217.87 709.12,430.19 861.77,632.8 148.49,205.38 223.43,437.13 223.43,693.86 0,363.59 -127.67,670.27 -383.02,922.83 -255.33,251.18 -574.51,377.46 -957.52,377.46 -255.34,0 -498.2,-55.5 -731.33,-166.52 -231.75,-111.02 -423.26,-263.67 -575.91,-459.34l358.04 -406.6c290.03,327.5 599.49,491.25 925.61,491.25 227.58,0 421.87,-73.54 582.84,-219.25 159.59,-145.72 240.07,-317.79 240.07,-514.85 0,-162.36 -52.73,-306.68 -158.19,-434.36 -106.86,-124.89 -345.55,-281.7 -717.46,-470.44 -399.66,-205.37 -671.65,-407.98 -814.59,-607.82 -144.32,-199.83 -216.48,-427.41 -216.48,-684.14 0,-334.44 115.18,-611.99 344.15,-834.02 230.36,-220.65 520.4,-331.67 871.49,-331.67 407.99,0 818.76,195.67 1232.3,588.4zm1491.8 -2128.77l566.19 0 0 1648.61 899.24 0 0 491.26 -899.24 0 0 3930.02 -566.19 0 0 -3930.02 -774.35 0 0 -491.26 774.35 0 0 -1648.61zm6062.95 4604.46l480.15 252.56c-158.19,306.69 -339.99,555.09 -546.76,743.83 -206.77,187.34 -438.52,331.66 -696.63,430.19 -259.51,98.53 -550.93,147.09 -877.04,147.09 -724.39,0 -1289.2,-235.91 -1697.19,-707.73 -407.99,-471.83 -611.98,-1004.71 -611.98,-1598.65 0,-559.26 173.46,-1058.84 519.01,-1495.97 437.13,-556.48 1024.13,-835.41 1758.24,-835.41 756.31,0 1361.35,285.87 1812.36,856.22 320.57,402.45 484.32,904.8 489.87,1508.46l-3996.64 0c11.1,512.07 176.24,931.16 494.03,1257.27 319.18,327.51 713.29,491.26 1180.95,491.26 226.2,0 446.85,-38.86 660.56,-116.57 213.7,-77.71 395.5,-180.41 545.37,-309.46 149.88,-129.06 312.24,-335.83 485.7,-623.09zm5.55 -1190.67c-76.32,-303.91 -187.34,-545.37 -333.05,-727.16 -147.1,-181.79 -339.99,-327.5 -580.07,-438.52 -240.07,-111.02 -492.64,-166.53 -756.31,-166.53 -437.13,0 -811.81,138.78 -1125.44,417.71 -230.36,203.99 -402.44,507.9 -520.39,914.5l3315.26 0zm1455.73 -1765.18l582.84 0 0 646.68c173.46,-255.34 356.64,-444.07 549.53,-568.96 192.9,-123.51 394.12,-185.96 602.28,-185.96 158.2,0 326.11,49.96 505.13,149.88l-296.97 477.37c-119.35,-51.35 -219.26,-77.71 -301.14,-77.71 -190.12,0 -373.3,77.71 -549.54,233.14 -176.24,155.42 -310.85,398.27 -403.83,725.77 -70.77,251.18 -105.46,760.48 -105.46,1526.5l0 1494.57 -582.84 0 0 -4421.28zm3345.79 3522.04c138.77,0 255.34,48.57 353.87,145.71 97.14,98.53 145.71,216.49 145.71,358.04 0,138.76 -48.57,256.72 -145.71,355.25 -98.53,98.53 -215.1,148.48 -353.87,148.48 -137.38,0 -255.34,-49.95 -353.87,-148.48 -97.14,-98.53 -145.71,-216.49 -145.71,-355.25 0,-141.55 48.57,-259.51 145.71,-358.04 98.53,-97.14 216.49,-145.71 353.87,-145.71zm3512.33 -5223.38l0 553.7c-209.55,-90.2 -389.95,-134.61 -539.83,-134.61 -112.4,0 -205.38,22.21 -278.93,66.61 -73.55,44.41 -120.73,95.75 -138.77,154.04 -19.43,58.28 -29.15,213.71 -29.15,464.89l0 596.71 928.39 0 0 491.26 -929.77 0 -2.78 3930.02 -566.19 0 0 -3930.02 -582.84 0 0 -491.26 582.84 0 0 -688.31c0,-316.4 29.14,-542.59 87.43,-677.2 58.28,-134.61 158.2,-244.24 298.36,-326.12 138.77,-81.88 308.07,-123.5 506.52,-123.5 184.56,0 406.6,37.46 664.72,113.79zm782.67 1701.34l566.19 0 0 764.64c198.44,-281.71 401.05,-488.48 610.6,-618.93 287.26,-169.3 589.78,-253.95 906.18,-253.95 215.09,0 417.7,41.63 610.6,126.28 192.89,83.27 349.7,195.67 471.82,334.45 122.12,140.16 227.59,339.98 317.79,600.88 188.73,-346.93 426.03,-610.6 709.13,-791 284.48,-180.4 589.78,-270.61 917.28,-270.61 305.3,0 575.9,77.72 809.04,231.75 234.53,154.04 407.99,369.14 521.79,645.29 113.79,276.16 170.68,689.7 170.68,1242.01l0 2410.47 -582.84 0 0 -2411.85c0,-474.61 -33.3,-799.33 -101.3,-976.96 -68,-177.63 -183.18,-320.56 -346.93,-428.81 -163.75,-108.24 -358.03,-162.36 -585.62,-162.36 -274.77,0 -527.34,81.87 -754.92,244.24 -228.98,162.36 -395.5,378.85 -500.97,649.45 -105.47,270.61 -158.2,723 -158.2,1355.81l0 1730.48 -566.19 0 0 -2261.98c0,-532.89 -33.3,-895.08 -99.92,-1086.59 -66.61,-191.5 -181.79,-344.15 -346.93,-459.33 -166.52,-115.18 -362.19,-172.08 -589.78,-172.08 -263.67,0 -509.29,79.1 -738.26,237.3 -228.98,158.2 -398.28,371.91 -507.91,639.74 -109.63,267.83 -165.14,678.6 -165.14,1230.91l0 1872.03 -566.19 0 0 -4421.28z"/>
  <path class="fil1" d="M52460.53 9390.71c-50.04,-375.33 -326.64,-523.16 -621.16,-498.19 -481.82,40.83 -569.32,234.49 -591.46,632.93 262.92,2576.63 521.6,5498.87 1074.58,7987.31 666.62,1925.79 1498.36,1524.31 2103.73,478.59 648.65,-1120.44 629.68,-2085.46 788.19,-3362.11l979.53 -7889.2 302.98 -2120.88c406.76,-4203.25 732.68,-3004.82 976.28,101l1312.92 11479.67c113.37,774.66 388.03,2826.43 1468.65,2730.27 1011.72,-90.04 1397.28,-2260.61 1561.18,-3100.58 508.18,-4221.84 727.43,-8644.51 1426.17,-12797.9 178.9,-1063.41 585.56,-1809.64 762.03,139.96 316.77,3354.78 634.59,6682.39 1004.22,10021.57 154.31,1394.19 377.51,3662.93 1001.49,4841.4 520.41,982.81 1058.27,1021.87 1526.3,602.24 973.09,-872.48 1062.87,-2935.18 1153.53,-4175.44 281.37,-3848.96 571.3,-7645.95 1037.47,-11491.76 484.27,-2324.56 710.43,-1061.67 1043.6,437.64 161.63,1701.07 395.02,3423.24 625.41,5041.94 65.46,459.85 7.23,1966.9 829.83,1741.66 620.17,-169.83 332.4,-1608.52 280.38,-2109.2l-422.69 -4068.43c-146.85,-954.48 -260.91,-2315.38 -822.18,-3110.67 -588.84,-834.34 -1530.49,-1033.15 -2180.15,-144 -556.56,761.75 -608.1,2091.61 -677.38,3011.27 -289.48,3841.95 -660.66,7735.53 -938.1,11563.31 -179.13,2471.42 -487.18,2322.44 -745.8,1428.34 -290.19,-1003.3 -330.91,-1962.89 -412.67,-2993.29 -283.67,-3574.9 -600,-7073.6 -1168.78,-10653.53 -611.93,-3671.64 -2297.49,-4029.4 -3076.8,-132.81 -423.81,2996.9 -615.13,5942.03 -947.19,8931.38 -158.88,1430.21 -274,3224.59 -552.24,4594.27 -198.04,974.89 -476.87,1452.02 -733.72,-586.68l-1317.33 -12723.55c-652.4,-4631.12 -2492.49,-3968.89 -3091.05,299.9l-1260.74 11102.64c-473.87,2460.69 -722.34,4036.65 -1138.73,366.02l-560.3 -5575.09z"/>
  <polygon class="fil2" points="48706.57,17903.15 45516.32,17903.15 45475.41,5837.44 39790.21,13281.37 34105.01,5755.63 34186.81,17984.95 30914.76,17984.95 30792.05,970.25 34473.12,1011.15 39831.11,8250.58 45066.41,1135.28 48706.57,1174.75 "/>
  <polygon class="fil2" points="28051.7,8659.59 19585.25,8618.68 19667.05,4047.67 28518.91,4170.37 28568.11,1068.78 16595.93,1109.68 16550.82,17789.89 19513.97,17829.03 19564.67,11454.74 28074.2,11487.31 "/>
  <path class="fil2" d="M15279.9 3254.61l-2085.88 1963.18c-1981.52,-990.75 -3461.3,-1964.92 -5778.07,-1369.14 -2395.15,615.93 -4285.42,3036.49 -4294.48,5504.52 -11.86,3227.53 2071.21,5478.49 4875.53,5830.39 2302.62,288.94 3444.22,-539.39 5319.72,-1581.33l2167.68 2249.48c-2214.51,1621.34 -4072.25,2530.19 -6098.33,2635.65 -5814.63,302.65 -10158.24,-4683.53 -9270.73,-10484.3 476.22,-3112.55 2701.25,-6076.93 5763.57,-7004.99 3468.88,-1051.29 6844.68,-299.78 9400.99,2256.54z"/>
 </g>
</svg>
